<?xml version="1.0" encoding="utf-8"?>
<!-- Generator: Adobe Illustrator 24.1.2, SVG Export Plug-In . SVG Version: 6.00 Build 0)  -->
<svg version="1.1" id="Icon_Name" xmlns="http://www.w3.org/2000/svg" xmlns:xlink="http://www.w3.org/1999/xlink" x="0px" y="0px"
	 width="24px" height="24px" viewBox="0 0 24 24" enable-background="new 0 0 24 24" xml:space="preserve">
<g>
	<path fill="#ED1C24" d="M12,21.35c-5.17,0-9.35-4.18-9.35-9.35c0-5.17,4.18-9.35,9.35-9.35c5.17,0,9.35,4.18,9.35,9.35
		C21.35,17.17,17.17,21.35,12,21.35L12,21.35z M12,0.31C5.54,0.31,0.31,5.54,0.31,12c0,6.46,5.23,11.69,11.69,11.69
		c6.46,0,11.69-5.23,11.69-11.69C23.69,5.54,18.46,0.31,12,0.31L12,0.31z M12,6.16c-3.23,0-5.84,2.62-5.84,5.84s2.62,5.84,5.84,5.84
		s5.84-2.62,5.84-5.84S15.23,6.16,12,6.16L12,6.16z"/>
</g>
</svg>
