<?xml version="1.0" encoding="utf-8"?>
<!-- Generator: Adobe Illustrator 15.1.0, SVG Export Plug-In . SVG Version: 6.00 Build 0)  -->
<!DOCTYPE svg PUBLIC "-//W3C//DTD SVG 1.1//EN" "http://www.w3.org/Graphics/SVG/1.1/DTD/svg11.dtd">
<svg version="1.1" class="kpi-text" id="Layer_1" xmlns="http://www.w3.org/2000/svg" xmlns:xlink="http://www.w3.org/1999/xlink" x="0px" y="0px"
	 width="512px" height="512px" viewBox="0 0 512 512" enable-background="new 0 0 512 512" xml:space="preserve">
<g>
	<path fill="#272525" d="M457.481,106.938H50.149C30.184,106.938,14,123.121,14,143.082v177.77C14,340.816,30.184,357,50.149,357
		h407.329c19.965,0,36.148-16.184,36.148-36.148v-177.77C493.626,123.121,477.442,106.938,457.481,106.938z M132.872,310.621H75.938
		c-8.531,0-15.449-6.918-15.449-15.453V168.77c0-8.531,6.918-15.453,15.449-15.453c8.535,0,15.453,6.918,15.453,15.453v110.945
		h41.48c8.535,0,15.453,6.918,15.453,15.453S141.407,310.621,132.872,310.621z M196.2,295.168c0,8.535-6.918,15.453-15.453,15.453
		s-15.453-6.918-15.453-15.453V168.77c0-8.531,6.918-15.453,15.453-15.453s15.453,6.918,15.453,15.453V295.168z M326.216,173.238
		l-38.161,126.395c-0.004,0.012-0.008,0.023-0.012,0.035c-4.145,14.145-25.273,13.797-29.562,0
		c-0.004-0.012-0.008-0.023-0.012-0.035l-38.16-126.395c-2.465-8.172,2.156-16.793,10.328-19.262
		c8.164-2.465,16.793,2.156,19.258,10.328l23.367,77.395l23.367-77.395c2.469-8.172,11.09-12.797,19.262-10.328
		C324.06,156.445,328.685,165.066,326.216,173.238z M421.282,208.559c8.535,0,15.453,6.918,15.453,15.453
		c0,8.531-6.918,15.453-15.453,15.453h-43.852v40.25h52.176c8.535,0,15.453,6.918,15.453,15.453s-6.918,15.453-15.453,15.453
		h-67.629c-8.535,0-15.453-6.918-15.453-15.453V168.77c0-8.531,6.918-15.453,15.453-15.453h69.711
		c8.531,0,15.453,6.918,15.453,15.453s-6.922,15.453-15.453,15.453h-54.262v24.336H421.282z"/>
</g>
</svg>
