<?xml version="1.0" encoding="utf-8"?>
<!-- Generator: Adobe Illustrator 15.1.0, SVG Export Plug-In . SVG Version: 6.00 Build 0)  -->
<!DOCTYPE svg PUBLIC "-//W3C//DTD SVG 1.1//EN" "http://www.w3.org/Graphics/SVG/1.1/DTD/svg11.dtd">
<svg version="1.1" id="Capa_1" xmlns="http://www.w3.org/2000/svg" xmlns:xlink="http://www.w3.org/1999/xlink" x="0px" y="0px"
	 width="500px" height="500px" viewBox="0 0 500 500" enable-background="new 0 0 500 500" xml:space="preserve">
<rect x="16.668" y="74.596" stroke="#000000" stroke-miterlimit="10" width="123.906" height="82.993"/>
<rect x="158.108" y="74.596" stroke="#000000" stroke-miterlimit="10" width="123.905" height="82.993"/>
<rect x="297.21" y="74.596" stroke="#000000" stroke-miterlimit="10" width="123.905" height="82.993"/>
<rect x="15.5" y="173.955" stroke="#000000" stroke-miterlimit="10" width="123.906" height="82.993"/>
<rect x="156.939" y="173.955" stroke="#000000" stroke-miterlimit="10" width="123.906" height="82.993"/>
<rect x="296.041" y="173.955" stroke="#000000" stroke-miterlimit="10" width="123.905" height="82.993"/>
<rect x="15.5" y="270.975" stroke="#000000" stroke-miterlimit="10" width="123.906" height="82.994"/>
<rect x="156.939" y="270.975" stroke="#000000" stroke-miterlimit="10" width="123.906" height="82.994"/>
<path d="M491.545,444.062l-40.77-40.77c9.043-13.341,14.329-29.431,14.329-46.723c0-46.072-37.485-83.575-83.572-83.575
	c-46.085,0-83.573,37.503-83.573,83.575c0,46.071,37.488,83.571,83.573,83.571c17.824,0,34.326-5.65,47.909-15.211l40.632,40.633
	c2.947,2.946,6.839,4.438,10.729,4.438s7.78-1.491,10.743-4.452C497.485,459.605,497.485,450.004,491.545,444.062z M381.516,409.735
	c-29.324,0-53.18-23.855-53.18-53.183c0-29.325,23.855-53.181,53.18-53.181c29.329,0,53.184,23.855,53.184,53.181
	C434.699,385.88,410.845,409.735,381.516,409.735z"/>
</svg>
