<?xml version="1.0" encoding="utf-8"?>
<!-- Generator: Adobe Illustrator 24.1.2, SVG Export Plug-In . SVG Version: 6.00 Build 0)  -->
<svg version="1.1" id="Icon_Name" xmlns="http://www.w3.org/2000/svg" xmlns:xlink="http://www.w3.org/1999/xlink" x="0px" y="0px"
	 width="24px" height="24px" viewBox="0 0 24 24" enable-background="new 0 0 24 24" xml:space="preserve">
<g>
	<path fill="#FFFFFF" d="M22.81,4.98c-0.45-0.26-1.01-0.25-1.45,0.02l-3.63,2.18c-0.24-1.35-1.42-2.38-2.84-2.38H8.87L22.97,18.9
		c0.35-0.27,0.56-0.68,0.56-1.13V6.23C23.54,5.71,23.26,5.23,22.81,4.98L22.81,4.98z M22.81,4.98"/>
	<path fill="#FFFFFF" d="M0.46,2.5L2.8,4.84C1.47,5.1,0.46,6.27,0.46,7.67v8.65c0,1.59,1.29,2.88,2.88,2.88h11.54
		c0.64,0,1.22-0.23,1.7-0.59l4.91,4.91l2.04-2.04L2.5,0.46L0.46,2.5z M0.46,2.5"/>
</g>
</svg>
