<?xml version="1.0" encoding="utf-8"?>
<!-- Generator: Adobe Illustrator 15.1.0, SVG Export Plug-In . SVG Version: 6.00 Build 0)  -->
<!DOCTYPE svg PUBLIC "-//W3C//DTD SVG 1.1//EN" "http://www.w3.org/Graphics/SVG/1.1/DTD/svg11.dtd">
<svg version="1.1" id="Capa_1" xmlns="http://www.w3.org/2000/svg" xmlns:xlink="http://www.w3.org/1999/xlink" x="0px" y="0px"
	 width="512px" height="512px" viewBox="0 0 512 512" enable-background="new 0 0 512 512" xml:space="preserve">
<path d="M495.766,100.156c-10.03-5.688-22.328-5.531-32.233,0.406l-80.5,48.297c-5.281-30-31.532-52.86-63.032-52.86H186.5
	l313.01,313.01C507.203,403.006,512,393.936,512,384V127.999C512,116.468,505.797,105.828,495.766,100.156L495.766,100.156z"/>
<path d="M0,45.25l51.967,51.967C22.418,102.871,0,128.824,0,160v192c0,35.296,28.703,63.999,64,63.999h256
	c14.278,0,27.148-5.038,37.75-13l109,109l45.25-45.25L45.251,0.001L0,45.25L0,45.25z"/>
</svg>
