<?xml version="1.0" encoding="utf-8"?>
<!-- Generator: Adobe Illustrator 15.1.0, SVG Export Plug-In . SVG Version: 6.00 Build 0)  -->
<!DOCTYPE svg PUBLIC "-//W3C//DTD SVG 1.1//EN" "http://www.w3.org/Graphics/SVG/1.1/DTD/svg11.dtd">
<svg version="1.1" id="Layer_1" xmlns="http://www.w3.org/2000/svg" xmlns:xlink="http://www.w3.org/1999/xlink" x="0px" y="0px"
	 width="512px" height="512px" viewBox="0 0 512 512" enable-background="new 0 0 512 512" xml:space="preserve">
<path d="M497,442h-16V125c0-8.289-6.711-15-15-15h-60c-8.289,0-15,6.711-15,15v317h-30V215c0-8.289-6.711-15-15-15h-60
	c-8.289,0-15,6.711-15,15v227h-30V335c0-8.289-6.711-15-15-15h-60c-8.289,0-15,6.711-15,15v107h-30V275c0-8.289-6.711-15-15-15H46
	c-8.289,0-15,6.711-15,15v167H15c-8.289,0-15,6.711-15,15s6.711,15,15,15h482c8.289,0,15-6.711,15-15S505.289,442,497,442z"/>
</svg>
